<?xml version="1.0" encoding="iso-8859-1"?>
<!-- Uploaded to: SVG Repo, www.svgrepo.com, Generator: SVG Repo Mixer Tools -->
<!DOCTYPE svg PUBLIC "-//W3C//DTD SVG 1.1//EN" "http://www.w3.org/Graphics/SVG/1.1/DTD/svg11.dtd">
<svg fill="#000000" version="1.1" id="Capa_1" xmlns="http://www.w3.org/2000/svg" xmlns:xlink="http://www.w3.org/1999/xlink" 
	 width="800px" height="800px" viewBox="0 0 31.32 31.32" xml:space="preserve"
	>
<g>
	<g>
		<polygon points="19.442,30.975 24.629,25.498 19.442,25.498 		"/>
		<path d="M25.257,3.139h-1.783v1.497c0,1.378-1.121,2.5-2.5,2.5s-2.5-1.122-2.5-2.5V3.139h-0.312v1.497c0,1.378-1.121,2.5-2.5,2.5
			s-2.5-1.122-2.5-2.5V3.139h-0.313v1.497c0,1.378-1.121,2.5-2.5,2.5s-2.5-1.122-2.5-2.5V3.139H6.044V31.32h12.029v-7.19h7.203
			L25.257,3.139z M20.974,20.698H10.349v-2h10.625V20.698z M20.974,16.406H10.349v-2h10.625V16.406z M20.974,12.178H10.349v-2
			h10.625V12.178z"/>
		<path d="M10.349,6.136c0.828,0,1.5-0.671,1.5-1.5V1.5c0-0.829-0.672-1.5-1.5-1.5s-1.5,0.671-1.5,1.5v3.136
			C8.849,5.465,9.521,6.136,10.349,6.136z"/>
		<path d="M15.662,6.136c0.828,0,1.5-0.671,1.5-1.5V1.5c0-0.829-0.672-1.5-1.5-1.5s-1.5,0.671-1.5,1.5v3.136
			C14.162,5.465,14.833,6.136,15.662,6.136z"/>
		<path d="M20.974,6.136c0.828,0,1.5-0.671,1.5-1.5V1.5c0-0.829-0.672-1.5-1.5-1.5s-1.5,0.671-1.5,1.5v3.136
			C19.474,5.465,20.146,6.136,20.974,6.136z"/>
	</g>
</g>
</svg>